<svg width="393" height="87" viewBox="0 0 393 87" fill="none" xmlns="http://www.w3.org/2000/svg">
<path d="M8.62955 15.498V15.498C12.8471 14.0551 17.4963 14.6622 21.2019 17.1396L64.1377 45.8438C72.3243 51.3169 75.8123 61.6076 72.6406 70.9305L72.2065 72.2065L69.432 71.9336C64.2884 71.4277 59.4931 69.1066 55.9054 65.3864L9.8718 17.6536C9.28741 17.0477 8.86083 16.3074 8.62955 15.498V15.498Z" fill="url(#paint0_linear_1_859)"/>
<path d="M15.498 51.9534L33.4615 69.2125L24.1853 72.406C23.2143 72.7403 22.1944 72.9109 21.1675 72.9109H20.5987C18.3235 72.9109 16.1166 72.1331 14.3442 70.7066V70.7066C11.6678 68.5524 10.6706 64.927 11.8687 61.7071L15.498 51.9534Z" fill="url(#paint1_linear_1_859)"/>
<path d="M58.1293 22.1028C55.63 20.2852 56.3311 16.3856 59.307 15.5523L62.9377 14.5357C64.3627 14.1367 65.8875 14.316 67.181 15.0347V15.0347C69.7729 16.4746 71.1812 19.3871 70.7002 22.3128L70.0554 26.2354C69.7494 28.0967 67.5899 28.9833 66.0644 27.8738L58.1293 22.1028Z" fill="url(#paint2_linear_1_859)"/>
<path d="M139.009 38.1381C139.009 41.6181 138.591 44.5761 137.756 47.0121C136.955 49.4481 135.755 51.4317 134.154 52.9629C132.588 54.4941 130.657 55.6251 128.36 56.3559C126.063 57.0519 123.436 57.3999 120.478 57.3999H101.529V20.8599H117.815C119.451 20.8599 121.104 20.9295 122.774 21.0687C124.48 21.2079 126.115 21.4863 127.681 21.9039C129.247 22.3215 130.709 22.9131 132.066 23.6787C133.458 24.4443 134.659 25.4535 135.668 26.7063C136.712 27.9591 137.53 29.5077 138.121 31.3521C138.713 33.1617 139.009 35.3367 139.009 37.8771V38.1381ZM106.645 52.8063H118.703C121.87 52.8063 124.427 52.4757 126.376 51.8145C128.325 51.1533 129.821 50.2137 130.865 48.9957C131.944 47.7429 132.658 46.2465 133.006 44.5065C133.388 42.7317 133.58 40.7481 133.58 38.5557C133.58 36.2589 133.301 34.2927 132.745 32.6571C132.188 31.0215 131.283 29.6817 130.03 28.6377C128.812 27.5589 127.211 26.7759 125.228 26.2887C123.279 25.7667 120.895 25.4883 118.076 25.4535H106.645V52.8063ZM175.515 43.5147C175.48 46.0551 175.045 48.2823 174.21 50.1963C173.41 52.0755 172.261 53.6415 170.765 54.8943C169.303 56.1471 167.546 57.0867 165.493 57.7131C163.474 58.3395 161.23 58.6527 158.759 58.6527C156.253 58.6527 153.991 58.3395 151.973 57.7131C149.955 57.1215 148.215 56.1993 146.753 54.9465C145.326 53.6937 144.213 52.1103 143.412 50.1963C142.612 48.2823 142.194 46.0377 142.159 43.4625C142.159 40.8873 142.56 38.6427 143.36 36.7287C144.16 34.7799 145.274 33.1791 146.701 31.9263C148.162 30.6387 149.902 29.6817 151.921 29.0553C153.974 28.3941 156.236 28.0635 158.707 28.0635C161.212 28.0635 163.492 28.3767 165.545 29.0031C167.598 29.6295 169.356 30.5865 170.817 31.8741C172.314 33.1269 173.462 34.7277 174.262 36.6765C175.098 38.6253 175.515 40.9047 175.515 43.5147ZM147.118 43.3581C147.188 47.1165 148.215 49.8831 150.198 51.6579C152.217 53.3979 155.07 54.2679 158.759 54.2679C162.448 54.2679 165.319 53.3979 167.372 51.6579C169.425 49.9179 170.487 47.1513 170.556 43.3581C170.487 39.5649 169.408 36.7983 167.32 35.0583C165.232 33.2835 162.343 32.3961 158.655 32.3961C154.966 32.3961 152.13 33.2835 150.146 35.0583C148.197 36.7983 147.188 39.5649 147.118 43.3581ZM195.1 57.2955C192.49 57.3303 190.455 57.1215 188.993 56.6691C187.531 56.2167 186.435 55.4163 185.704 54.2679C185.008 53.0847 184.573 51.4665 184.399 49.4133C184.26 47.3253 184.191 44.6805 184.191 41.4789V34.0665H179.232V29.7861H184.243V23.6787H189.097L188.21 29.7861H197.293V34.0665H189.097L189.045 41.4789C189.045 44.2281 189.08 46.3683 189.15 47.8995C189.254 49.4307 189.498 50.5617 189.88 51.2925C190.298 52.0233 190.907 52.4583 191.707 52.5975C192.543 52.7367 193.691 52.8063 195.153 52.8063L195.1 57.2955ZM225.678 49.6743C225.643 52.6323 224.721 54.8769 222.912 56.4081C221.137 57.9393 218.544 58.7049 215.134 58.7049H213.359C209.949 58.7049 207.304 57.9393 205.425 56.4081C203.545 54.8421 202.571 52.4757 202.501 49.3089C202.501 46.2117 203.458 43.9323 205.372 42.4707C207.286 40.9743 209.949 40.2261 213.359 40.2261H229.384C229.21 38.6949 228.775 37.4421 228.079 36.4677C227.383 35.4585 226.566 34.6755 225.626 34.1187C224.686 33.5271 223.66 33.1269 222.546 32.9181C221.467 32.6745 220.458 32.5527 219.519 32.5527H218.997C218.057 32.5527 217.083 32.6223 216.073 32.7615C215.064 32.9007 214.09 33.1617 213.15 33.5445C212.211 33.8925 211.358 34.3797 210.592 35.0061C209.827 35.6325 209.253 36.4503 208.87 37.4595H203.754C203.928 36.1023 204.415 34.8669 205.216 33.7533C206.051 32.6397 207.13 31.6827 208.452 30.8823C209.809 30.0471 211.358 29.4033 213.098 28.9509C214.873 28.4985 216.752 28.2723 218.736 28.2723H219.153C221.868 28.2723 224.182 28.5855 226.096 29.2119C228.01 29.8383 229.576 30.7953 230.794 32.0829C232.012 33.3705 232.899 35.0061 233.456 36.9897C234.013 38.9733 234.309 41.3223 234.343 44.0367V57.3999H229.489V44.4021L224.112 44.3499C225.156 45.7767 225.678 47.5515 225.678 49.6743ZM207.356 49.3089C207.391 50.9793 207.878 52.2495 208.818 53.1195C209.757 53.9547 211.271 54.3723 213.359 54.3723H215.134C217.152 54.3723 218.631 53.9547 219.571 53.1195C220.51 52.2843 221.015 51.0141 221.085 49.3089C221.015 47.6037 220.528 46.3509 219.623 45.5505C218.718 44.7501 217.222 44.3499 215.134 44.3499H213.359C211.271 44.3499 209.757 44.7501 208.818 45.5505C207.878 46.3509 207.391 47.6037 207.356 49.3089ZM278.296 47.3253C278.296 48.9609 277.965 50.4747 277.304 51.8667C276.678 53.2239 275.616 54.4071 274.12 55.4163C272.623 56.3907 270.64 57.1563 268.169 57.7131C265.733 58.2699 262.688 58.5483 259.034 58.5483C255.38 58.5483 252.387 58.1307 250.056 57.2955C247.759 56.4603 245.932 55.3989 244.575 54.1113C243.252 52.7889 242.295 51.3447 241.704 49.7787C241.147 48.1779 240.799 46.6119 240.66 45.0807H246.193C246.402 47.8995 247.585 50.0919 249.742 51.6579C251.935 53.1891 255.084 53.9547 259.191 53.9547C263.436 53.9547 266.777 53.4675 269.213 52.4931C271.684 51.4839 272.937 49.8831 272.971 47.6907C273.006 45.4983 271.927 43.9323 269.735 42.9927C267.543 42.0531 264.132 41.4441 259.504 41.1657C256.441 41.0613 253.779 40.8525 251.517 40.5393C249.29 40.2261 247.446 39.7041 245.984 38.9733C244.522 38.2425 243.444 37.2507 242.748 35.9979C242.052 34.7451 241.704 33.1095 241.704 31.0911C241.704 29.5947 242.052 28.1679 242.748 26.8107C243.444 25.4535 244.54 24.2703 246.036 23.2611C247.567 22.2171 249.516 21.3993 251.883 20.8077C254.249 20.1813 257.103 19.8681 260.443 19.8681C264.028 19.8681 266.934 20.2683 269.161 21.0687C271.423 21.8691 273.198 22.8957 274.485 24.1485C275.808 25.4013 276.73 26.8107 277.252 28.3767C277.809 29.9427 278.157 31.4913 278.296 33.0225H272.763C272.623 31.3869 272.223 30.0297 271.562 28.9509C270.901 27.8373 270.013 26.9499 268.9 26.2887C267.821 25.6275 266.551 25.1577 265.089 24.8793C263.628 24.6009 262.027 24.4617 260.287 24.4617C258.303 24.4617 256.494 24.5835 254.858 24.8271C253.257 25.0707 251.865 25.4535 250.682 25.9755C249.534 26.4627 248.629 27.1065 247.968 27.9069C247.341 28.6725 247.028 29.6121 247.028 30.7257C247.028 31.8045 247.272 32.7093 247.759 33.4401C248.281 34.1361 249.081 34.7103 250.16 35.1627C251.239 35.5803 252.613 35.9109 254.284 36.1545C255.989 36.3633 257.99 36.5373 260.287 36.6765C263.488 36.8505 266.22 37.1463 268.482 37.5639C270.744 37.9467 272.606 38.5383 274.068 39.3387C275.529 40.1391 276.591 41.1831 277.252 42.4707C277.948 43.7583 278.296 45.3765 278.296 47.3253ZM300.416 32.6049C298.676 32.6049 297.075 32.8311 295.613 33.2835C294.152 33.7359 292.882 34.4145 291.803 35.3193C290.724 36.2241 289.889 37.3725 289.297 38.7645C288.706 40.1217 288.392 41.7573 288.358 43.6713V57.3999H283.503V20.8599H288.358V33.0225C289.819 31.4913 291.594 30.3255 293.682 29.5251C295.77 28.7247 298.084 28.3245 300.625 28.3245C302.608 28.3245 304.418 28.5855 306.053 29.1075C307.689 29.6295 309.081 30.4125 310.229 31.4565C311.413 32.4657 312.317 33.7533 312.944 35.3193C313.57 36.8505 313.883 38.6601 313.883 40.7481V57.3999H309.029V42.4185C309.029 41.0961 308.907 39.8433 308.663 38.6601C308.42 37.4769 307.967 36.4329 307.306 35.5281C306.645 34.6233 305.758 33.9099 304.644 33.3879C303.565 32.8659 302.156 32.6049 300.416 32.6049ZM351.435 43.5147C351.4 46.0551 350.965 48.2823 350.13 50.1963C349.33 52.0755 348.181 53.6415 346.685 54.8943C345.223 56.1471 343.466 57.0867 341.413 57.7131C339.394 58.3395 337.15 58.6527 334.679 58.6527C332.173 58.6527 329.911 58.3395 327.893 57.7131C325.875 57.1215 324.135 56.1993 322.673 54.9465C321.246 53.6937 320.133 52.1103 319.332 50.1963C318.532 48.2823 318.114 46.0377 318.079 43.4625C318.079 40.8873 318.48 38.6427 319.28 36.7287C320.08 34.7799 321.194 33.1791 322.621 31.9263C324.082 30.6387 325.822 29.6817 327.841 29.0553C329.894 28.3941 332.156 28.0635 334.627 28.0635C337.132 28.0635 339.412 28.3767 341.465 29.0031C343.518 29.6295 345.276 30.5865 346.737 31.8741C348.234 33.1269 349.382 34.7277 350.182 36.6765C351.018 38.6253 351.435 40.9047 351.435 43.5147ZM323.038 43.3581C323.108 47.1165 324.135 49.8831 326.118 51.6579C328.137 53.3979 330.99 54.2679 334.679 54.2679C338.368 54.2679 341.239 53.3979 343.292 51.6579C345.345 49.9179 346.407 47.1513 346.476 43.3581C346.407 39.5649 345.328 36.7983 343.24 35.0583C341.152 33.2835 338.263 32.3961 334.575 32.3961C330.886 32.3961 328.05 33.2835 326.066 35.0583C324.117 36.7983 323.108 39.5649 323.038 43.3581ZM374.1 58.4439C371.629 58.4439 369.315 58.0959 367.158 57.3999C365 56.6691 363.138 55.5903 361.572 54.1635V66.2217H356.718V29.7339H361.572L361.311 33.1269C362.877 31.6305 364.722 30.4647 366.844 29.6295C369.002 28.7943 371.351 28.3767 373.891 28.3767C376.258 28.3767 378.45 28.6725 380.469 29.2641C382.487 29.8557 384.227 30.7779 385.689 32.0307C387.185 33.2487 388.351 34.7973 389.186 36.6765C390.056 38.5209 390.508 40.7133 390.543 43.2537C390.543 45.8637 390.126 48.1257 389.29 50.0397C388.49 51.9537 387.359 53.5371 385.897 54.7899C384.436 56.0427 382.696 56.9649 380.677 57.5565C378.659 58.1481 376.467 58.4439 374.1 58.4439ZM361.624 43.4103C361.659 45.3243 361.972 46.9425 362.564 48.2649C363.19 49.5873 364.043 50.6661 365.122 51.5013C366.201 52.3365 367.471 52.9455 368.932 53.3283C370.429 53.7111 372.047 53.9025 373.787 53.9025C375.527 53.9025 377.11 53.7111 378.537 53.3283C379.999 52.9455 381.234 52.3365 382.243 51.5013C383.287 50.6661 384.088 49.5873 384.645 48.2649C385.236 46.9425 385.549 45.3243 385.584 43.4103C385.549 41.4963 385.236 39.8781 384.645 38.5557C384.088 37.1985 383.305 36.1023 382.296 35.2671C381.286 34.3971 380.068 33.7707 378.642 33.3879C377.215 33.0051 375.631 32.8137 373.891 32.8137C372.117 32.8137 370.481 33.0225 368.985 33.4401C367.523 33.8229 366.235 34.4493 365.122 35.3193C364.043 36.1545 363.19 37.2507 362.564 38.6079C361.972 39.9303 361.659 41.5311 361.624 43.4103Z" fill="white"/>
<defs>
<linearGradient id="paint0_linear_1_859" x1="43.5" y1="0" x2="43.5" y2="87" gradientUnits="userSpaceOnUse">
<stop stop-color="white"/>
<stop offset="1" stop-color="#5D5FEF"/>
</linearGradient>
<linearGradient id="paint1_linear_1_859" x1="43.5" y1="0" x2="43.5" y2="87" gradientUnits="userSpaceOnUse">
<stop stop-color="white"/>
<stop offset="1" stop-color="#5D5FEF"/>
</linearGradient>
<linearGradient id="paint2_linear_1_859" x1="43.5" y1="0" x2="43.5" y2="87" gradientUnits="userSpaceOnUse">
<stop stop-color="white"/>
<stop offset="1" stop-color="#5D5FEF"/>
</linearGradient>
</defs>
</svg>
