<svg width="157" height="60" viewBox="0 0 157 60" fill="none" xmlns="http://www.w3.org/2000/svg">
<path d="M5.95142 10.6883C8.86006 9.6932 12.0664 10.1119 14.622 11.8204L47.4238 33.7497C51.1878 36.266 52.7914 40.9974 51.3332 45.2838L49.7976 49.7976L46.0523 49.4292C43.6875 49.1966 41.4827 48.1294 39.8332 46.419L6.80814 12.1749C6.40511 11.757 6.11092 11.2465 5.95142 10.6883Z" fill="url(#paint0_linear_66_2371)"/>
<path d="M10.6883 35.83L23.0769 47.7328L16.6795 49.9352C16.0098 50.1657 15.3065 50.2834 14.5982 50.2834H14.206C12.6369 50.2834 11.1149 49.747 9.89257 48.7631C8.04678 47.2775 7.35903 44.7773 8.18532 42.5566L10.6883 35.83Z" fill="url(#paint1_linear_66_2371)"/>
<path d="M39.1707 14.5754C37.8187 13.5921 38.198 11.4827 39.8078 11.032L43.4053 10.0246C44.3881 9.74948 45.4397 9.87313 46.3317 10.3687C48.1192 11.3618 49.0905 13.3704 48.7588 15.3881L48.3141 18.0934C48.1031 19.3771 46.6137 19.9885 45.5616 19.2233L39.1707 14.5754Z" fill="url(#paint2_linear_66_2371)"/>
<path d="M61.824 24.8H66.384C67.568 24.8 68.6133 25.04 69.52 25.52C70.4267 25.9893 71.1307 26.6507 71.632 27.504C72.1333 28.3467 72.384 29.312 72.384 30.4C72.384 31.488 72.1333 32.4587 71.632 33.312C71.1307 34.1547 70.4267 34.816 69.52 35.296C68.6133 35.7653 67.568 36 66.384 36H61.824V24.8ZM66.32 34.976C67.3013 34.976 68.16 34.784 68.896 34.4C69.632 34.0053 70.2027 33.4667 70.608 32.784C71.0133 32.0907 71.216 31.296 71.216 30.4C71.216 29.504 71.0133 28.7147 70.608 28.032C70.2027 27.3387 69.632 26.8 68.896 26.416C68.16 26.0213 67.3013 25.824 66.32 25.824H63.008V34.976H66.32ZM79.9388 36.096C78.8294 36.096 77.8214 35.8507 76.9148 35.36C76.0188 34.8587 75.3148 34.176 74.8028 33.312C74.3014 32.448 74.0508 31.4773 74.0508 30.4C74.0508 29.3227 74.3014 28.352 74.8028 27.488C75.3148 26.624 76.0188 25.9467 76.9148 25.456C77.8214 24.9547 78.8294 24.704 79.9388 24.704C81.0481 24.704 82.0454 24.9493 82.9308 25.44C83.8268 25.9307 84.5308 26.6133 85.0428 27.488C85.5548 28.352 85.8108 29.3227 85.8108 30.4C85.8108 31.4773 85.5548 32.4533 85.0428 33.328C84.5308 34.192 83.8268 34.8693 82.9308 35.36C82.0454 35.8507 81.0481 36.096 79.9388 36.096ZM79.9388 35.04C80.8241 35.04 81.6241 34.8427 82.3388 34.448C83.0534 34.0427 83.6134 33.488 84.0188 32.784C84.4241 32.0693 84.6268 31.2747 84.6268 30.4C84.6268 29.5253 84.4241 28.736 84.0188 28.032C83.6134 27.3173 83.0534 26.7627 82.3388 26.368C81.6241 25.9627 80.8241 25.76 79.9388 25.76C79.0534 25.76 78.2481 25.9627 77.5228 26.368C76.8081 26.7627 76.2428 27.3173 75.8268 28.032C75.4214 28.736 75.2188 29.5253 75.2188 30.4C75.2188 31.2747 75.4214 32.0693 75.8268 32.784C76.2428 33.488 76.8081 34.0427 77.5228 34.448C78.2481 34.8427 79.0534 35.04 79.9388 35.04ZM95.3804 26.864C94.2817 26.224 93.0657 25.856 91.7324 25.76V36H90.5484V25.76C89.2364 25.8453 88.015 26.2133 86.8844 26.864L86.4524 25.936C87.839 25.1147 89.3964 24.704 91.1244 24.704C92.8844 24.704 94.447 25.1147 95.8124 25.936L95.3804 26.864ZM102.025 24.704C103.476 24.704 104.617 25.1307 105.449 25.984C106.292 26.8267 106.713 28.048 106.713 29.648V36H105.545V32.704H98.505V36H97.353V29.648C97.353 28.048 97.769 26.8267 98.601 25.984C99.4437 25.1307 100.585 24.704 102.025 24.704ZM105.545 31.68V29.536C105.545 28.288 105.236 27.3493 104.617 26.72C103.998 26.08 103.134 25.76 102.025 25.76C100.916 25.76 100.052 26.08 99.433 26.72C98.8143 27.3493 98.505 28.288 98.505 29.536V31.68H105.545ZM113.35 36.096C112.518 36.096 111.718 35.9627 110.95 35.696C110.192 35.4293 109.606 35.0773 109.19 34.64L109.654 33.728C110.059 34.1333 110.598 34.464 111.27 34.72C111.942 34.9653 112.635 35.088 113.35 35.088C114.352 35.088 115.104 34.9067 115.606 34.544C116.107 34.1707 116.358 33.6907 116.358 33.104C116.358 32.656 116.219 32.2987 115.942 32.032C115.675 31.7653 115.344 31.5627 114.95 31.424C114.555 31.2747 114.006 31.1147 113.302 30.944C112.459 30.7307 111.787 30.528 111.286 30.336C110.784 30.1333 110.352 29.8293 109.99 29.424C109.638 29.0187 109.462 28.4693 109.462 27.776C109.462 27.2107 109.611 26.6987 109.91 26.24C110.208 25.7707 110.667 25.3973 111.286 25.12C111.904 24.8427 112.672 24.704 113.59 24.704C114.23 24.704 114.854 24.7947 115.462 24.976C116.08 25.1467 116.614 25.3867 117.062 25.696L116.661 26.64C116.192 26.3307 115.691 26.1013 115.158 25.952C114.624 25.792 114.102 25.712 113.59 25.712C112.608 25.712 111.867 25.904 111.366 26.288C110.875 26.6613 110.63 27.1467 110.63 27.744C110.63 28.192 110.763 28.5547 111.03 28.832C111.307 29.0987 111.648 29.3067 112.054 29.456C112.47 29.5947 113.024 29.7493 113.718 29.92C114.539 30.1227 115.2 30.3253 115.702 30.528C116.214 30.72 116.646 31.0187 116.998 31.424C117.35 31.8187 117.526 32.3573 117.526 33.04C117.526 33.6053 117.371 34.1227 117.062 34.592C116.763 35.0507 116.299 35.4187 115.67 35.696C115.04 35.9627 114.267 36.096 113.35 36.096ZM129.465 24.8V36H128.297V30.832H121.289V36H120.105V24.8H121.289V29.792H128.297V24.8H129.465ZM138.017 36.096C136.908 36.096 135.9 35.8507 134.993 35.36C134.097 34.8587 133.393 34.176 132.881 33.312C132.38 32.448 132.129 31.4773 132.129 30.4C132.129 29.3227 132.38 28.352 132.881 27.488C133.393 26.624 134.097 25.9467 134.993 25.456C135.9 24.9547 136.908 24.704 138.017 24.704C139.126 24.704 140.124 24.9493 141.009 25.44C141.905 25.9307 142.609 26.6133 143.121 27.488C143.633 28.352 143.889 29.3227 143.889 30.4C143.889 31.4773 143.633 32.4533 143.121 33.328C142.609 34.192 141.905 34.8693 141.009 35.36C140.124 35.8507 139.126 36.096 138.017 36.096ZM138.017 35.04C138.902 35.04 139.702 34.8427 140.417 34.448C141.132 34.0427 141.692 33.488 142.097 32.784C142.502 32.0693 142.705 31.2747 142.705 30.4C142.705 29.5253 142.502 28.736 142.097 28.032C141.692 27.3173 141.132 26.7627 140.417 26.368C139.702 25.9627 138.902 25.76 138.017 25.76C137.132 25.76 136.326 25.9627 135.601 26.368C134.886 26.7627 134.321 27.3173 133.905 28.032C133.5 28.736 133.297 29.5253 133.297 30.4C133.297 31.2747 133.5 32.0693 133.905 32.784C134.321 33.488 134.886 34.0427 135.601 34.448C136.326 34.8427 137.132 35.04 138.017 35.04ZM150.735 24.8C152.164 24.8 153.284 25.1413 154.095 25.824C154.905 26.5067 155.311 27.4453 155.311 28.64C155.311 29.8347 154.905 30.7733 154.095 31.456C153.284 32.128 152.164 32.464 150.735 32.464H147.727V36H146.543V24.8H150.735ZM150.703 31.424C151.812 31.424 152.66 31.184 153.247 30.704C153.833 30.2133 154.127 29.5253 154.127 28.64C154.127 27.7333 153.833 27.04 153.247 26.56C152.66 26.0693 151.812 25.824 150.703 25.824H147.727V31.424H150.703Z" fill="white"/>
<defs>
<linearGradient id="paint0_linear_66_2371" x1="30" y1="0" x2="30" y2="60" gradientUnits="userSpaceOnUse">
<stop stop-color="white"/>
<stop offset="1" stop-color="#5D5FEF"/>
</linearGradient>
<linearGradient id="paint1_linear_66_2371" x1="30" y1="0" x2="30" y2="60" gradientUnits="userSpaceOnUse">
<stop stop-color="white"/>
<stop offset="1" stop-color="#5D5FEF"/>
</linearGradient>
<linearGradient id="paint2_linear_66_2371" x1="30" y1="0" x2="30" y2="60" gradientUnits="userSpaceOnUse">
<stop stop-color="white"/>
<stop offset="1" stop-color="#5D5FEF"/>
</linearGradient>
</defs>
</svg>
