<svg width="588" height="588" viewBox="0 0 588 588" fill="none" xmlns="http://www.w3.org/2000/svg">
<g style="mix-blend-mode:hard-light" filter="url(#filter0_f_1_148)">
<circle cx="294" cy="294" r="240" fill="#128DFF" fill-opacity="0.216"/>
</g>
<g style="mix-blend-mode:hard-light" filter="url(#filter1_f_1_148)">
<mask id="path-2-inside-1_1_148" fill="white">
<path d="M494 294C494 404.457 404.457 494 294 494C183.543 494 94 404.457 94 294C94 183.543 183.543 93.9999 294 93.9999C404.457 93.9999 494 183.543 494 294ZM113.465 294C113.465 393.707 194.293 474.535 294 474.535C393.707 474.535 474.535 393.707 474.535 294C474.535 194.293 393.707 113.465 294 113.465C194.293 113.465 113.465 194.293 113.465 294Z"/>
</mask>
<path d="M494 294C494 404.457 404.457 494 294 494C183.543 494 94 404.457 94 294C94 183.543 183.543 93.9999 294 93.9999C404.457 93.9999 494 183.543 494 294ZM113.465 294C113.465 393.707 194.293 474.535 294 474.535C393.707 474.535 474.535 393.707 474.535 294C474.535 194.293 393.707 113.465 294 113.465C194.293 113.465 113.465 194.293 113.465 294Z" stroke="#0094FF" stroke-width="21.6667" mask="url(#path-2-inside-1_1_148)"/>
</g>
<g style="mix-blend-mode:hard-light" filter="url(#filter2_f_1_148)">
<mask id="path-3-inside-2_1_148" fill="white">
<path d="M494 294C494 404.457 404.457 494 294 494C183.543 494 94 404.457 94 294C94 183.543 183.543 93.9999 294 93.9999C404.457 93.9999 494 183.543 494 294ZM113.465 294C113.465 393.707 194.293 474.535 294 474.535C393.707 474.535 474.535 393.707 474.535 294C474.535 194.293 393.707 113.465 294 113.465C194.293 113.465 113.465 194.293 113.465 294Z"/>
</mask>
<path d="M494 294C494 404.457 404.457 494 294 494C183.543 494 94 404.457 94 294C94 183.543 183.543 93.9999 294 93.9999C404.457 93.9999 494 183.543 494 294ZM113.465 294C113.465 393.707 194.293 474.535 294 474.535C393.707 474.535 474.535 393.707 474.535 294C474.535 194.293 393.707 113.465 294 113.465C194.293 113.465 113.465 194.293 113.465 294Z" stroke="#0094FF" stroke-width="28.3333" mask="url(#path-3-inside-2_1_148)"/>
</g>
<g style="mix-blend-mode:hard-light" filter="url(#filter3_ddi_1_148)">
<mask id="path-4-inside-3_1_148" fill="white">
<path d="M494 294C494 404.457 404.457 494 294 494C183.543 494 94 404.457 94 294C94 183.543 183.543 93.9999 294 93.9999C404.457 93.9999 494 183.543 494 294ZM113.465 294C113.465 393.707 194.293 474.535 294 474.535C393.707 474.535 474.535 393.707 474.535 294C474.535 194.293 393.707 113.465 294 113.465C194.293 113.465 113.465 194.293 113.465 294Z"/>
</mask>
<path d="M494 294C494 404.457 404.457 494 294 494C183.543 494 94 404.457 94 294C94 183.543 183.543 93.9999 294 93.9999C404.457 93.9999 494 183.543 494 294ZM113.465 294C113.465 393.707 194.293 474.535 294 474.535C393.707 474.535 474.535 393.707 474.535 294C474.535 194.293 393.707 113.465 294 113.465C194.293 113.465 113.465 194.293 113.465 294Z" stroke="#00B3FF" stroke-opacity="0.2" stroke-width="21.6667" mask="url(#path-4-inside-3_1_148)"/>
</g>
<g filter="url(#filter4_f_1_148)">
<mask id="path-5-inside-4_1_148" fill="white">
<path d="M494 294C494 404.457 404.457 494 294 494C183.543 494 94 404.457 94 294C94 183.543 183.543 93.9999 294 93.9999C404.457 93.9999 494 183.543 494 294ZM113.465 294C113.465 393.707 194.293 474.535 294 474.535C393.707 474.535 474.535 393.707 474.535 294C474.535 194.293 393.707 113.465 294 113.465C194.293 113.465 113.465 194.293 113.465 294Z"/>
</mask>
<path d="M494 294C494 404.457 404.457 494 294 494C183.543 494 94 404.457 94 294C94 183.543 183.543 93.9999 294 93.9999C404.457 93.9999 494 183.543 494 294ZM113.465 294C113.465 393.707 194.293 474.535 294 474.535C393.707 474.535 474.535 393.707 474.535 294C474.535 194.293 393.707 113.465 294 113.465C194.293 113.465 113.465 194.293 113.465 294Z" stroke="#82D9FF" stroke-width="13.3333" mask="url(#path-5-inside-4_1_148)"/>
</g>
<g filter="url(#filter5_f_1_148)">
<mask id="path-6-inside-5_1_148" fill="white">
<path d="M494 294C494 404.457 404.457 494 294 494C183.543 494 94 404.457 94 294C94 183.543 183.543 93.9999 294 93.9999C404.457 93.9999 494 183.543 494 294ZM113.465 294C113.465 393.707 194.293 474.535 294 474.535C393.707 474.535 474.535 393.707 474.535 294C474.535 194.293 393.707 113.465 294 113.465C194.293 113.465 113.465 194.293 113.465 294Z"/>
</mask>
<path d="M494 294C494 404.457 404.457 494 294 494C183.543 494 94 404.457 94 294C94 183.543 183.543 93.9999 294 93.9999C404.457 93.9999 494 183.543 494 294ZM113.465 294C113.465 393.707 194.293 474.535 294 474.535C393.707 474.535 474.535 393.707 474.535 294C474.535 194.293 393.707 113.465 294 113.465C194.293 113.465 113.465 194.293 113.465 294Z" stroke="white" stroke-width="6.66667" mask="url(#path-6-inside-5_1_148)"/>
</g>
<defs>
<filter id="filter0_f_1_148" x="0" y="-0.00012207" width="588" height="588" filterUnits="userSpaceOnUse" color-interpolation-filters="sRGB">
<feFlood flood-opacity="0" result="BackgroundImageFix"/>
<feBlend mode="normal" in="SourceGraphic" in2="BackgroundImageFix" result="shape"/>
<feGaussianBlur stdDeviation="27" result="effect1_foregroundBlur_1_148"/>
</filter>
<filter id="filter1_f_1_148" x="40" y="39.9999" width="508" height="508" filterUnits="userSpaceOnUse" color-interpolation-filters="sRGB">
<feFlood flood-opacity="0" result="BackgroundImageFix"/>
<feBlend mode="normal" in="SourceGraphic" in2="BackgroundImageFix" result="shape"/>
<feGaussianBlur stdDeviation="27" result="effect1_foregroundBlur_1_148"/>
</filter>
<filter id="filter2_f_1_148" x="76" y="75.9999" width="436" height="436" filterUnits="userSpaceOnUse" color-interpolation-filters="sRGB">
<feFlood flood-opacity="0" result="BackgroundImageFix"/>
<feBlend mode="normal" in="SourceGraphic" in2="BackgroundImageFix" result="shape"/>
<feGaussianBlur stdDeviation="9" result="effect1_foregroundBlur_1_148"/>
</filter>
<filter id="filter3_ddi_1_148" x="70.6" y="88.5999" width="446.8" height="446.8" filterUnits="userSpaceOnUse" color-interpolation-filters="sRGB">
<feFlood flood-opacity="0" result="BackgroundImageFix"/>
<feColorMatrix in="SourceAlpha" type="matrix" values="0 0 0 0 0 0 0 0 0 0 0 0 0 0 0 0 0 0 127 0" result="hardAlpha"/>
<feOffset dy="10.8333"/>
<feGaussianBlur stdDeviation="4.16667"/>
<feColorMatrix type="matrix" values="0 0 0 0 0 0 0 0 0 0.051 0 0 0 0 0.082 0 0 0 0.7 0"/>
<feBlend mode="multiply" in2="BackgroundImageFix" result="effect1_dropShadow_1_148"/>
<feColorMatrix in="SourceAlpha" type="matrix" values="0 0 0 0 0 0 0 0 0 0 0 0 0 0 0 0 0 0 127 0" result="hardAlpha"/>
<feOffset dy="18"/>
<feGaussianBlur stdDeviation="11.7"/>
<feColorMatrix type="matrix" values="0 0 0 0 0 0 0 0 0 0.4 0 0 0 0 1 0 0 0 1 0"/>
<feBlend mode="color-dodge" in2="effect1_dropShadow_1_148" result="effect2_dropShadow_1_148"/>
<feBlend mode="normal" in="SourceGraphic" in2="effect2_dropShadow_1_148" result="shape"/>
<feColorMatrix in="SourceAlpha" type="matrix" values="0 0 0 0 0 0 0 0 0 0 0 0 0 0 0 0 0 0 127 0" result="hardAlpha"/>
<feOffset dx="-1.08333" dy="2.16667"/>
<feGaussianBlur stdDeviation="0.541667"/>
<feComposite in2="hardAlpha" operator="arithmetic" k2="-1" k3="1"/>
<feColorMatrix type="matrix" values="0 0 0 0 1 0 0 0 0 1 0 0 0 0 1 0 0 0 0.5 0"/>
<feBlend mode="normal" in2="shape" result="effect3_innerShadow_1_148"/>
</filter>
<filter id="filter4_f_1_148" x="92.3333" y="92.3332" width="403.333" height="403.333" filterUnits="userSpaceOnUse" color-interpolation-filters="sRGB">
<feFlood flood-opacity="0" result="BackgroundImageFix"/>
<feBlend mode="normal" in="SourceGraphic" in2="BackgroundImageFix" result="shape"/>
<feGaussianBlur stdDeviation="0.833333" result="effect1_foregroundBlur_1_148"/>
</filter>
<filter id="filter5_f_1_148" x="92.8889" y="92.8888" width="402.222" height="402.222" filterUnits="userSpaceOnUse" color-interpolation-filters="sRGB">
<feFlood flood-opacity="0" result="BackgroundImageFix"/>
<feBlend mode="normal" in="SourceGraphic" in2="BackgroundImageFix" result="shape"/>
<feGaussianBlur stdDeviation="0.555556" result="effect1_foregroundBlur_1_148"/>
</filter>
</defs>
</svg>
