<svg width="450" height="96" viewBox="0 0 450 96" fill="none" xmlns="http://www.w3.org/2000/svg">
<path d="M9.43053 17.2978C14.0395 15.721 19.1202 16.3844 23.1699 19.0918L70.0909 50.4603C79.0374 56.4414 82.849 67.6872 79.3829 77.8754L78.9085 79.2699L75.8765 78.9716C70.2556 78.4188 65.0152 75.8823 61.0944 71.8168L10.7881 19.6536C10.1495 18.9913 9.68327 18.1824 9.43053 17.2978Z" fill="url(#paint0_linear_22_5526)"/>
<path d="M16.9365 57.137L36.5674 75.998L26.4301 79.4879C25.369 79.8532 24.2545 80.0397 23.1322 80.0397H22.5106C20.0242 80.0397 17.6126 79.1897 15.6756 77.6307C12.7508 75.2766 11.661 71.3148 12.9703 67.7959L16.9365 57.137Z" fill="url(#paint1_linear_22_5526)"/>
<path d="M63.5247 24.5157C60.7935 22.5294 61.5597 18.2678 64.8118 17.3572L68.7795 16.2462C70.3367 15.8102 72.003 16.0062 73.4166 16.7915C76.249 18.365 77.7881 21.5479 77.2625 24.7452L76.5578 29.0319C76.2235 31.0659 73.8634 32.0348 72.1963 30.8223L63.5247 24.5157Z" fill="url(#paint2_linear_22_5526)"/>
<path d="M113.463 34.4448H129.721C133.942 34.4448 137.669 35.3004 140.902 37.0118C144.134 38.6851 146.644 41.043 148.432 44.0854C150.219 47.0898 151.113 50.5315 151.113 54.4106C151.113 58.2896 150.219 61.7504 148.432 64.7928C146.644 67.7971 144.134 70.155 140.902 71.8664C137.669 73.5397 133.942 74.3763 129.721 74.3763H113.463V34.4448ZM129.493 70.7255C132.991 70.7255 136.053 70.0409 138.677 68.6718C141.301 67.2647 143.335 65.3442 144.781 62.9103C146.226 60.4383 146.948 57.6051 146.948 54.4106C146.948 51.216 146.226 48.4018 144.781 45.9679C143.335 43.4959 141.301 41.5754 138.677 40.2063C136.053 38.7992 132.991 38.0957 129.493 38.0957H117.684V70.7255H129.493ZM178.048 74.7186C174.093 74.7186 170.499 73.8439 167.266 72.0945C164.072 70.3071 161.562 67.8732 159.736 64.7928C157.949 61.7123 157.055 58.2516 157.055 54.4106C157.055 50.5695 157.949 47.1088 159.736 44.0283C161.562 40.9479 164.072 38.533 167.266 36.7836C170.499 34.9962 174.093 34.1025 178.048 34.1025C182.003 34.1025 185.559 34.9772 188.715 36.7266C191.91 38.476 194.42 40.9099 196.245 44.0283C198.071 47.1088 198.983 50.5695 198.983 54.4106C198.983 58.2516 198.071 61.7313 196.245 64.8498C194.42 67.9302 191.91 70.3452 188.715 72.0945C185.559 73.8439 182.003 74.7186 178.048 74.7186ZM178.048 70.9536C181.204 70.9536 184.056 70.2501 186.604 68.843C189.152 67.3978 191.149 65.4203 192.594 62.9103C194.039 60.3623 194.762 57.529 194.762 54.4106C194.762 51.2921 194.039 48.4779 192.594 45.9679C191.149 43.4199 189.152 41.4423 186.604 40.0352C184.056 38.59 181.204 37.8675 178.048 37.8675C174.891 37.8675 172.02 38.59 169.434 40.0352C166.886 41.4423 164.87 43.4199 163.387 45.9679C161.942 48.4779 161.219 51.2921 161.219 54.4106C161.219 57.529 161.942 60.3623 163.387 62.9103C164.87 65.4203 166.886 67.3978 169.434 68.843C172.02 70.2501 174.891 70.9536 178.048 70.9536ZM233.102 41.8036C229.185 39.5218 224.85 38.2097 220.096 37.8675V74.3763H215.874V37.8675C211.197 38.1717 206.842 39.4838 202.811 41.8036L201.271 38.495C206.215 35.5667 211.767 34.1025 217.928 34.1025C224.203 34.1025 229.774 35.5667 234.642 38.495L233.102 41.8036ZM256.792 34.1025C261.964 34.1025 266.034 35.6237 269 38.6661C272.004 41.6705 273.506 46.0249 273.506 51.7294V74.3763H269.342V62.6251H244.242V74.3763H240.135V51.7294C240.135 46.0249 241.618 41.6705 244.585 38.6661C247.589 35.6237 251.658 34.1025 256.792 34.1025ZM269.342 58.9742V51.3301C269.342 46.8806 268.239 43.534 266.034 41.2902C263.828 39.0084 260.747 37.8675 256.792 37.8675C252.837 37.8675 249.757 39.0084 247.551 41.2902C245.345 43.534 244.242 46.8806 244.242 51.3301V58.9742H269.342ZM297.168 74.7186C294.201 74.7186 291.349 74.2432 288.611 73.2925C285.911 72.3417 283.819 71.0867 282.336 69.5275L283.99 66.2759C285.435 67.7211 287.356 68.9 289.752 69.8127C292.148 70.6874 294.62 71.1248 297.168 71.1248C300.743 71.1248 303.424 70.4783 305.211 69.1852C306.998 67.8542 307.892 66.1428 307.892 64.0512C307.892 62.4539 307.398 61.1799 306.409 60.2292C305.458 59.2784 304.279 58.5558 302.872 58.0614C301.465 57.529 299.507 56.9586 296.997 56.3501C293.992 55.5895 291.596 54.8669 289.809 54.1824C288.021 53.4598 286.481 52.3759 285.188 50.9308C283.933 49.4857 283.306 47.5271 283.306 45.0552C283.306 43.0396 283.838 41.2141 284.903 39.5788C285.968 37.9055 287.603 36.5745 289.809 35.5857C292.015 34.5969 294.753 34.1025 298.023 34.1025C300.305 34.1025 302.53 34.4258 304.698 35.0723C306.903 35.6807 308.805 36.5364 310.402 37.6393L308.976 41.005C307.303 39.9021 305.515 39.0844 303.614 38.552C301.712 37.9816 299.849 37.6963 298.023 37.6963C294.525 37.6963 291.882 38.3809 290.094 39.75C288.345 41.081 287.47 42.8114 287.47 44.9411C287.47 46.5383 287.945 47.8314 288.896 48.8201C289.885 49.7709 291.102 50.5125 292.547 51.0449C294.03 51.5393 296.008 52.0907 298.48 52.6992C301.408 53.4218 303.766 54.1443 305.553 54.8669C307.379 55.5515 308.919 56.6163 310.174 58.0614C311.429 59.4686 312.056 61.3891 312.056 63.823C312.056 65.8386 311.505 67.6831 310.402 69.3564C309.337 70.9917 307.683 72.3037 305.439 73.2925C303.195 74.2432 300.438 74.7186 297.168 74.7186ZM354.625 34.4448V74.3763H350.461V55.9508H325.475V74.3763H321.254V34.4448H325.475V52.2428H350.461V34.4448H354.625ZM385.115 74.7186C381.16 74.7186 377.566 73.8439 374.333 72.0945C371.139 70.3071 368.629 67.8732 366.803 64.7928C365.016 61.7123 364.122 58.2516 364.122 54.4106C364.122 50.5695 365.016 47.1088 366.803 44.0283C368.629 40.9479 371.139 38.533 374.333 36.7836C377.566 34.9962 381.16 34.1025 385.115 34.1025C389.07 34.1025 392.626 34.9772 395.782 36.7266C398.977 38.476 401.487 40.9099 403.312 44.0283C405.138 47.1088 406.05 50.5695 406.05 54.4106C406.05 58.2516 405.138 61.7313 403.312 64.8498C401.487 67.9302 398.977 70.3452 395.782 72.0945C392.626 73.8439 389.07 74.7186 385.115 74.7186ZM385.115 70.9536C388.271 70.9536 391.124 70.2501 393.672 68.843C396.22 67.3978 398.216 65.4203 399.661 62.9103C401.106 60.3623 401.829 57.529 401.829 54.4106C401.829 51.2921 401.106 48.4779 399.661 45.9679C398.216 43.4199 396.22 41.4423 393.672 40.0352C391.124 38.59 388.271 37.8675 385.115 37.8675C381.958 37.8675 379.087 38.59 376.501 40.0352C373.953 41.4423 371.937 43.4199 370.454 45.9679C369.009 48.4779 368.286 51.2921 368.286 54.4106C368.286 57.529 369.009 60.3623 370.454 62.9103C371.937 65.4203 373.953 67.3978 376.501 68.843C379.087 70.2501 381.958 70.9536 385.115 70.9536ZM430.458 34.4448C435.554 34.4448 439.547 35.6617 442.437 38.0957C445.328 40.5296 446.773 43.8762 446.773 48.1356C446.773 52.395 445.328 55.7416 442.437 58.1755C439.547 60.5714 435.554 61.7694 430.458 61.7694H419.734V74.3763H415.512V34.4448H430.458ZM430.344 58.0614C434.299 58.0614 437.322 57.2058 439.414 55.4944C441.506 53.745 442.552 51.2921 442.552 48.1356C442.552 44.903 441.506 42.4311 439.414 40.7197C437.322 38.9703 434.299 38.0957 430.344 38.0957H419.734V58.0614H430.344Z" fill="white"/>
<defs>
<linearGradient id="paint0_linear_22_5526" x1="47.5376" y1="0.361328" x2="47.5376" y2="95.4365" gradientUnits="userSpaceOnUse">
<stop stop-color="white"/>
<stop offset="1" stop-color="#5D5FEF"/>
</linearGradient>
<linearGradient id="paint1_linear_22_5526" x1="47.5376" y1="0.361328" x2="47.5376" y2="95.4365" gradientUnits="userSpaceOnUse">
<stop stop-color="white"/>
<stop offset="1" stop-color="#5D5FEF"/>
</linearGradient>
<linearGradient id="paint2_linear_22_5526" x1="47.5376" y1="0.361328" x2="47.5376" y2="95.4365" gradientUnits="userSpaceOnUse">
<stop stop-color="white"/>
<stop offset="1" stop-color="#5D5FEF"/>
</linearGradient>
</defs>
</svg>
