<svg width="216" height="81" viewBox="0 0 216 81" fill="none" xmlns="http://www.w3.org/2000/svg">
<g filter="url(#filter0_d_132_6049)">
<path d="M16 17.4998C16 14.7383 18.2386 12.4998 21 12.4998L194.5 12.5C197.261 12.5 199.5 14.7386 199.5 17.5V44.1531C199.5 46.9145 197.261 49.1531 194.5 49.1531L70.8533 49.1528C69.0849 49.1528 67.4481 50.0869 66.5485 51.6093L61 60.9998L55.9237 51.7477C55.0457 50.1475 53.3655 49.1528 51.5402 49.1528H21C18.2386 49.1528 16 46.9142 16 44.1528V17.4998Z" fill="#232323"/>
<path d="M16.5 17.4998C16.5 15.0145 18.5147 12.9998 21 12.9998L194.5 13C196.985 13 199 15.0147 199 17.5V44.1531C199 46.6383 196.985 48.6531 194.5 48.6531L70.8533 48.6528C68.9081 48.6528 67.1076 49.6803 66.1181 51.3549L61.0161 59.9896L56.3621 51.5072C55.3963 49.7469 53.548 48.6528 51.5402 48.6528H21C18.5147 48.6528 16.5 46.6381 16.5 44.1528V17.4998Z" stroke="url(#paint0_linear_132_6049)"/>
</g>
<path d="M35.898 25.2V35H34.876V26.096H28.674V35H27.652V25.2H35.898ZM42.8727 25.13C44.1141 25.13 45.0894 25.4567 45.7987 26.11C46.5081 26.7633 46.8627 27.664 46.8627 28.812C46.8627 29.9227 46.5314 30.8 45.8687 31.444C45.2061 32.0787 44.2961 32.396 43.1387 32.396C42.5694 32.396 42.0281 32.3167 41.5147 32.158C41.0014 31.99 40.4881 31.738 39.9747 31.402V35H38.9527V28.966C38.9527 27.7527 39.2934 26.81 39.9747 26.138C40.6654 25.466 41.6314 25.13 42.8727 25.13ZM42.9847 31.542C43.8714 31.542 44.5667 31.304 45.0707 30.828C45.5747 30.3427 45.8267 29.6753 45.8267 28.826C45.8267 27.9673 45.5654 27.2907 45.0427 26.796C44.5201 26.3013 43.8061 26.054 42.9007 26.054C41.9767 26.054 41.2581 26.3107 40.7447 26.824C40.2314 27.328 39.9747 28.042 39.9747 28.966V30.408C40.3854 30.7813 40.8427 31.066 41.3467 31.262C41.8601 31.4487 42.4061 31.542 42.9847 31.542ZM53.4969 35.084C52.5262 35.084 51.6442 34.8693 50.8509 34.44C50.0669 34.0013 49.4509 33.404 49.0029 32.648C48.5642 31.892 48.3449 31.0427 48.3449 30.1C48.3449 29.1573 48.5642 28.308 49.0029 27.552C49.4509 26.796 50.0669 26.2033 50.8509 25.774C51.6442 25.3353 52.5262 25.116 53.4969 25.116C54.4675 25.116 55.3402 25.3307 56.1149 25.76C56.8989 26.1893 57.5149 26.7867 57.9629 27.552C58.4109 28.308 58.6349 29.1573 58.6349 30.1C58.6349 31.0427 58.4109 31.8967 57.9629 32.662C57.5149 33.418 56.8989 34.0107 56.1149 34.44C55.3402 34.8693 54.4675 35.084 53.4969 35.084ZM53.4969 34.16C54.2715 34.16 54.9715 33.9873 55.5969 33.642C56.2222 33.2873 56.7122 32.802 57.0669 32.186C57.4215 31.5607 57.5989 30.8653 57.5989 30.1C57.5989 29.3347 57.4215 28.644 57.0669 28.028C56.7122 27.4027 56.2222 26.9173 55.5969 26.572C54.9715 26.2173 54.2715 26.04 53.4969 26.04C52.7222 26.04 52.0175 26.2173 51.3829 26.572C50.7575 26.9173 50.2629 27.4027 49.8989 28.028C49.5442 28.644 49.3669 29.3347 49.3669 30.1C49.3669 30.8653 49.5442 31.5607 49.8989 32.186C50.2629 32.802 50.7575 33.2873 51.3829 33.642C52.0175 33.9873 52.7222 34.16 53.4969 34.16ZM70.5851 34.104V37.198H69.6191V35H60.9111L60.8971 37.198H59.9311L59.9451 34.104H61.1771V29.33C61.1771 27.9673 61.5411 26.9267 62.2691 26.208C63.0064 25.48 64.0051 25.116 65.2651 25.116C66.5251 25.116 67.5191 25.48 68.2471 26.208C68.9844 26.9267 69.3531 27.9673 69.3531 29.33V34.104H70.5851ZM68.3171 34.104V29.232C68.3171 28.1773 68.0464 27.384 67.5051 26.852C66.9731 26.3107 66.2264 26.04 65.2651 26.04C64.2944 26.04 63.5384 26.3107 62.9971 26.852C62.4651 27.384 62.1991 28.1773 62.1991 29.232V34.104H68.3171ZM76.6762 25.116C77.9455 25.116 78.9442 25.4893 79.6722 26.236C80.4095 26.9733 80.7782 28.042 80.7782 29.442V35H79.7562V32.116H73.5962V35H72.5882V29.442C72.5882 28.042 72.9522 26.9733 73.6802 26.236C74.4175 25.4893 75.4162 25.116 76.6762 25.116ZM79.7562 31.22V29.344C79.7562 28.252 79.4855 27.4307 78.9442 26.88C78.4028 26.32 77.6468 26.04 76.6762 26.04C75.7055 26.04 74.9495 26.32 74.4082 26.88C73.8668 27.4307 73.5962 28.252 73.5962 29.344V31.22H79.7562ZM91.7684 30.506H89.7384V35H88.7304V30.506H86.6864L83.6904 35H82.4864L85.8464 29.946L82.7384 25.2H83.8584L86.6724 29.596H88.7304V25.2H89.7384V29.596H91.7684L94.5964 25.2H95.7164L92.6084 29.946L95.9684 35H94.7644L91.7684 30.506ZM101.696 25.116C102.965 25.116 103.964 25.4893 104.692 26.236C105.429 26.9733 105.798 28.042 105.798 29.442V35H104.776V32.116H98.6157V35H97.6077V29.442C97.6077 28.042 97.9717 26.9733 98.6997 26.236C99.437 25.4893 100.436 25.116 101.696 25.116ZM104.776 31.22V29.344C104.776 28.252 104.505 27.4307 103.964 26.88C103.422 26.32 102.666 26.04 101.696 26.04C100.725 26.04 99.969 26.32 99.4277 26.88C98.8864 27.4307 98.6157 28.252 98.6157 29.344V31.22H104.776ZM120.813 25.2V35H119.791V30.478H113.659V35H112.623V25.2H113.659V29.568H119.791V25.2H120.813ZM128.069 25.116C129.338 25.116 130.337 25.4893 131.065 26.236C131.802 26.9733 132.171 28.042 132.171 29.442V35H131.149V32.116H124.989V35H123.981V29.442C123.981 28.042 124.345 26.9733 125.073 26.236C125.81 25.4893 126.809 25.116 128.069 25.116ZM131.149 31.22V29.344C131.149 28.252 130.878 27.4307 130.337 26.88C129.795 26.32 129.039 26.04 128.069 26.04C127.098 26.04 126.342 26.32 125.801 26.88C125.259 27.4307 124.989 28.252 124.989 29.344V31.22H131.149ZM143.28 35.084C142.309 35.084 141.432 34.8693 140.648 34.44C139.873 34.0107 139.262 33.418 138.814 32.662C138.375 31.8967 138.156 31.0427 138.156 30.1C138.156 29.1573 138.375 28.308 138.814 27.552C139.262 26.7867 139.878 26.1893 140.662 25.76C141.446 25.3307 142.323 25.116 143.294 25.116C144.022 25.116 144.694 25.2373 145.31 25.48C145.926 25.7227 146.448 26.0773 146.878 26.544L146.22 27.202C145.454 26.4273 144.488 26.04 143.322 26.04C142.547 26.04 141.842 26.2173 141.208 26.572C140.573 26.9267 140.074 27.412 139.71 28.028C139.355 28.644 139.178 29.3347 139.178 30.1C139.178 30.8653 139.355 31.556 139.71 32.172C140.074 32.788 140.573 33.2733 141.208 33.628C141.842 33.9827 142.547 34.16 143.322 34.16C144.498 34.16 145.464 33.768 146.22 32.984L146.878 33.642C146.448 34.1087 145.921 34.468 145.296 34.72C144.68 34.9627 144.008 35.084 143.28 35.084ZM152.965 25.116C154.235 25.116 155.233 25.4893 155.961 26.236C156.699 26.9733 157.067 28.042 157.067 29.442V35H156.045V32.116H149.885V35H148.877V29.442C148.877 28.042 149.241 26.9733 149.969 26.236C150.707 25.4893 151.705 25.116 152.965 25.116ZM156.045 31.22V29.344C156.045 28.252 155.775 27.4307 155.233 26.88C154.692 26.32 153.936 26.04 152.965 26.04C151.995 26.04 151.239 26.32 150.697 26.88C150.156 27.4307 149.885 28.252 149.885 29.344V31.22H156.045ZM168.11 25.2V35H167.116V33.348C166.472 34.5053 165.376 35.084 163.826 35.084C162.66 35.084 161.745 34.734 161.082 34.034C160.42 33.334 160.088 32.3353 160.088 31.038V25.2H161.124V31.01C161.124 32.046 161.376 32.83 161.88 33.362C162.394 33.894 163.108 34.16 164.022 34.16C164.984 34.16 165.73 33.88 166.262 33.32C166.804 32.7507 167.074 31.9013 167.074 30.772V25.2H168.11ZM164.162 24.486C163.462 24.486 162.907 24.3273 162.496 24.01C162.095 23.6927 161.89 23.2493 161.88 22.68H162.65C162.66 23.0533 162.8 23.3473 163.07 23.562C163.341 23.7767 163.705 23.884 164.162 23.884C164.61 23.884 164.97 23.7767 165.24 23.562C165.52 23.3473 165.665 23.0533 165.674 22.68H166.444C166.435 23.2493 166.225 23.6927 165.814 24.01C165.404 24.3273 164.853 24.486 164.162 24.486ZM177.699 27.006C176.738 26.446 175.674 26.124 174.507 26.04V35H173.471V26.04C172.323 26.1147 171.254 26.4367 170.265 27.006L169.887 26.194C171.1 25.4753 172.463 25.116 173.975 25.116C175.515 25.116 176.882 25.4753 178.077 26.194L177.699 27.006ZM186.723 33.88C186.322 34.2627 185.785 34.5613 185.113 34.776C184.45 34.9813 183.713 35.084 182.901 35.084C182.042 35.084 181.31 34.9673 180.703 34.734C180.106 34.5007 179.653 34.1787 179.345 33.768C179.046 33.3573 178.897 32.886 178.897 32.354C178.897 31.766 179.07 31.2667 179.415 30.856C179.77 30.4453 180.232 30.1607 180.801 30.002C180.334 29.8247 179.97 29.5447 179.709 29.162C179.448 28.77 179.317 28.3127 179.317 27.79C179.317 27.2953 179.457 26.8473 179.737 26.446C180.026 26.0353 180.456 25.7133 181.025 25.48C181.604 25.2373 182.299 25.116 183.111 25.116C183.708 25.116 184.287 25.186 184.847 25.326C185.416 25.4567 185.902 25.648 186.303 25.9L185.981 26.726C185.122 26.2407 184.18 25.998 183.153 25.998C182.248 25.998 181.552 26.1707 181.067 26.516C180.591 26.8613 180.353 27.3093 180.353 27.86C180.353 28.4107 180.544 28.8353 180.927 29.134C181.319 29.4327 181.87 29.582 182.579 29.582H185.015V30.478H182.537C181.734 30.478 181.1 30.632 180.633 30.94C180.166 31.2387 179.933 31.6867 179.933 32.284C179.933 32.872 180.185 33.3387 180.689 33.684C181.202 34.0293 181.954 34.202 182.943 34.202C183.634 34.202 184.278 34.104 184.875 33.908C185.472 33.712 185.958 33.4413 186.331 33.096L186.723 33.88Z" fill="white"/>
<defs>
<filter id="filter0_d_132_6049" x="0" y="0.499756" width="215.5" height="80.5" filterUnits="userSpaceOnUse" color-interpolation-filters="sRGB">
<feFlood flood-opacity="0" result="BackgroundImageFix"/>
<feColorMatrix in="SourceAlpha" type="matrix" values="0 0 0 0 0 0 0 0 0 0 0 0 0 0 0 0 0 0 127 0" result="hardAlpha"/>
<feOffset dy="4"/>
<feGaussianBlur stdDeviation="8"/>
<feComposite in2="hardAlpha" operator="out"/>
<feColorMatrix type="matrix" values="0 0 0 0 0.337809 0 0 0 0 0.121458 0 0 0 0 0.55 0 0 0 0.3 0"/>
<feBlend mode="normal" in2="BackgroundImageFix" result="effect1_dropShadow_132_6049"/>
<feBlend mode="normal" in="SourceGraphic" in2="effect1_dropShadow_132_6049" result="shape"/>
</filter>
<linearGradient id="paint0_linear_132_6049" x1="107.75" y1="12.4998" x2="107.75" y2="60.9998" gradientUnits="userSpaceOnUse">
<stop stop-color="white"/>
<stop offset="1" stop-color="#5D5FEF"/>
</linearGradient>
</defs>
</svg>
