<svg width="20" height="20" viewBox="0 0 20 20" fill="none" xmlns="http://www.w3.org/2000/svg">
<path d="M13.7498 5.625H16.3098C16.4646 5.62515 16.6139 5.68277 16.7287 5.78669C16.8435 5.89062 16.9156 6.03344 16.9311 6.1875L17.3123 10H16.0548L15.7423 6.875H13.7498V8.75C13.7498 8.91576 13.684 9.07473 13.5668 9.19194C13.4495 9.30915 13.2906 9.375 13.1248 9.375C12.9591 9.375 12.8001 9.30915 12.6829 9.19194C12.5657 9.07473 12.4998 8.91576 12.4998 8.75V6.875H7.49981V8.75C7.49981 8.91576 7.43396 9.07473 7.31675 9.19194C7.19954 9.30915 7.04057 9.375 6.87481 9.375C6.70905 9.375 6.55008 9.30915 6.43287 9.19194C6.31566 9.07473 6.24981 8.91576 6.24981 8.75V6.875H4.25606L3.25606 16.875H9.99981V18.125H2.56481C2.47752 18.1249 2.39121 18.1065 2.31145 18.0711C2.23168 18.0356 2.16024 17.9838 2.10171 17.919C2.04318 17.8543 1.99887 17.778 1.97163 17.695C1.9444 17.6121 1.93483 17.5244 1.94356 17.4375L3.06856 6.1875C3.08405 6.03344 3.15616 5.89062 3.27094 5.78669C3.38571 5.68277 3.53498 5.62515 3.68981 5.625H6.24981V5.18875C6.24981 3.02125 7.91981 1.25 9.99981 1.25C12.0798 1.25 13.7498 3.02125 13.7498 5.18875V5.62625V5.625ZM12.4998 5.625V5.18875C12.4998 3.69625 11.3723 2.5 9.99981 2.5C8.62731 2.5 7.49981 3.69625 7.49981 5.18875V5.62625H12.4998V5.625ZM16.4336 15.075L14.9998 13.6425V18.125C14.9998 18.2908 14.934 18.4497 14.8168 18.5669C14.6995 18.6842 14.5406 18.75 14.3748 18.75C14.2091 18.75 14.0501 18.6842 13.9329 18.5669C13.8157 18.4497 13.7498 18.2908 13.7498 18.125V13.6425L12.3173 15.075C12.2597 15.1347 12.1907 15.1823 12.1144 15.2151C12.0382 15.2478 11.9562 15.2651 11.8732 15.2658C11.7902 15.2665 11.7079 15.2507 11.6311 15.2193C11.5543 15.1878 11.4845 15.1414 11.4258 15.0827C11.3671 15.0241 11.3207 14.9543 11.2893 14.8775C11.2579 14.8007 11.2421 14.7184 11.2428 14.6354C11.2435 14.5524 11.2607 14.4704 11.2935 14.3941C11.3263 14.3179 11.3739 14.2489 11.4336 14.1912L13.9336 11.6912C14.0508 11.5741 14.2097 11.5083 14.3754 11.5083C14.5412 11.5083 14.7001 11.5741 14.8173 11.6912L17.3173 14.1912C17.377 14.2489 17.4246 14.3179 17.4574 14.3941C17.4901 14.4704 17.5074 14.5524 17.5081 14.6354C17.5088 14.7184 17.493 14.8007 17.4616 14.8775C17.4302 14.9543 17.3837 15.0241 17.3251 15.0827C17.2664 15.1414 17.1966 15.1878 17.1198 15.2193C17.043 15.2507 16.9607 15.2665 16.8777 15.2658C16.7947 15.2651 16.7127 15.2478 16.6364 15.2151C16.5602 15.1823 16.4912 15.1347 16.4336 15.075Z" fill="white"/>
</svg>
