<svg width="24" height="24" viewBox="0 0 24 24" fill="none" xmlns="http://www.w3.org/2000/svg">
<g clip-path="url(#clip0_22_3798)">
<path d="M23.6648 20.6216L17.9186 14.6853C17.5066 14.2595 16.9916 14.0889 16.7685 14.3067C16.5446 14.5229 16.0292 14.3528 15.6172 13.9269L15.535 13.8417C18.1068 10.4592 17.8572 5.61632 14.7689 2.52801C11.3983 -0.842587 5.93327 -0.842587 2.5631 2.52801C-0.807493 5.8986 -0.807493 11.3628 2.5631 14.7334C5.70402 17.8748 10.6614 18.0852 14.0508 15.372L14.0868 15.4097C14.4981 15.8356 14.6513 16.3559 14.4267 16.5725C14.2032 16.7891 14.3553 17.3098 14.7678 17.7349L20.5108 23.6735C20.9229 24.0982 21.6018 24.1108 22.0281 23.6984L23.6399 22.1389C24.0646 21.7275 24.0761 21.049 23.6648 20.6216ZM12.8722 12.8366C10.5527 15.1565 6.7782 15.1565 4.45905 12.8374C2.13955 10.5179 2.1399 6.74296 4.45905 4.42388C6.7782 2.10438 10.5527 2.10473 12.8715 4.42423C15.1913 6.74338 15.1913 10.5176 12.8722 12.8366Z" fill="white"/>
</g>
<defs>
<clipPath id="clip0_22_3798">
<rect width="24" height="24" fill="white"/>
</clipPath>
</defs>
</svg>
