<svg width="24" height="24" viewBox="0 0 24 24" fill="none" xmlns="http://www.w3.org/2000/svg">
<path fill-rule="evenodd" clip-rule="evenodd" d="M11.4732 0.0165085C5.35522 0.344766 0.554073 4.96057 0.0386889 11.0096C0.0293085 11.1197 0.0231422 11.2111 0.0249834 11.2126C0.0268355 11.2142 1.47799 11.8127 3.24978 12.5426L6.47121 13.8698L6.5781 13.8042C7.05989 13.5082 7.62281 13.3441 8.22328 13.3245L8.44331 13.3173L9.90757 11.1885L11.3718 9.0596L11.3786 8.82779C11.4832 5.26083 15.6081 3.19629 18.5154 5.25576C22.1616 7.83869 20.3999 13.44 15.9019 13.5654L15.8038 13.5681L13.7109 15.0648L11.618 16.5615L11.6116 16.7767C11.5712 18.1384 10.6766 19.3483 9.3805 19.7942C7.54382 20.4261 5.56509 19.3587 5.08494 17.4771L5.05851 17.3735L2.81034 16.4444C0.36176 15.4326 0.494936 15.4869 0.510832 15.5064C0.516878 15.5138 0.540106 15.5787 0.56244 15.6507C1.91011 19.9934 5.80085 23.2687 10.347 23.8875C18.1159 24.945 24.8001 18.3944 23.8922 10.6132C23.1659 4.38825 17.6537 -0.315108 11.4732 0.0165085ZM15.7167 5.9628C14.3598 6.05672 13.2062 7.06895 12.9456 8.39425C12.394 11.1996 15.6921 13.1724 17.8629 11.3355C20.0986 9.44374 18.6275 5.76131 15.7167 5.9628ZM16.3104 6.74645C18.3356 7.11714 18.8893 9.74817 17.183 10.893C15.7644 11.8448 13.8387 10.927 13.6623 9.21514C13.51 7.73677 14.8576 6.48052 16.3104 6.74645ZM8.12309 14.0857C7.88483 14.1044 7.39859 14.2139 7.39859 14.2488C7.39859 14.2523 7.74791 14.3995 8.17484 14.5761C9.18355 14.9931 9.25083 15.0283 9.49982 15.2691C10.8212 16.5469 9.72925 18.7642 7.91064 18.4961C7.68357 18.4626 7.6707 18.4579 6.71767 18.0618C5.89332 17.7192 5.9755 17.742 6.04664 17.8753C7.0211 19.7006 9.65903 19.6548 10.5923 17.7964C11.4771 16.0344 10.0782 13.9321 8.12309 14.0857Z" fill="white"/>
</svg>
