<svg width="22" height="22" viewBox="0 0 22 22" fill="none" xmlns="http://www.w3.org/2000/svg">
<path d="M5.65953 2.70411L6.36664 3.41121L5.65953 2.70411ZM2.7041 5.65953L1.997 4.95243H1.997L2.7041 5.65953ZM2.70411 16.3405L1.997 17.0476L1.997 17.0476L2.70411 16.3405ZM5.65953 19.2959L6.36664 18.5888L6.36664 18.5888L5.65953 19.2959ZM19.2959 5.65953L18.5888 6.36664L19.2959 5.65953ZM16.3405 2.7041L17.0476 1.997L17.0476 1.997L16.3405 2.7041ZM15.0301 1.53585L15.5526 0.683214L15.5526 0.683214L15.0301 1.53585ZM13.979 1.10047L13.7456 2.07284L13.979 1.10047ZM20.8995 8.02097L21.8719 7.78753L21.8719 7.78753L20.8995 8.02097ZM20.4641 6.96987L21.3168 6.44737V6.44737L20.4641 6.96987ZM20.4641 15.0301L21.3168 15.5526V15.5526L20.4641 15.0301ZM20.8995 13.979L21.8719 14.2125L21.8719 14.2125L20.8995 13.979ZM13.979 20.8995L14.2125 21.8719L14.2125 21.8719L13.979 20.8995ZM15.0301 20.4641L15.5526 21.3168H15.5526L15.0301 20.4641ZM6.96987 20.4641L6.44737 21.3168H6.44737L6.96987 20.4641ZM8.02097 20.8995L7.78753 21.8719L7.78753 21.8719L8.02097 20.8995ZM1.10047 13.979L2.07284 13.7456L1.10047 13.979ZM1.53585 15.0301L2.38849 14.5076H2.38849L1.53585 15.0301ZM1.53585 6.96987L2.38849 7.49237H2.38849L1.53585 6.96987ZM1.10047 8.02097L0.128103 7.78753L0.128103 7.78753L1.10047 8.02097ZM6.96987 1.53585L7.49237 2.38849V2.38849L6.96987 1.53585ZM8.02097 1.10047L7.78753 0.128103L7.78753 0.128103L8.02097 1.10047ZM12 6C12 5.44772 11.5523 5 11 5C10.4477 5 10 5.44772 10 6H12ZM10 12.6667C10 13.219 10.4477 13.6667 11 13.6667C11.5523 13.6667 12 13.219 12 12.6667H10ZM4.95242 1.997L1.997 4.95243L3.41121 6.36664L6.36664 3.41121L4.95242 1.997ZM0 9.77361V12.2264H2V9.77361H0ZM1.997 17.0476L4.95243 20.003L6.36664 18.5888L3.41121 15.6334L1.997 17.0476ZM9.77361 22H12.2264V20H9.77361V22ZM17.0476 20.003L20.003 17.0476L18.5888 15.6334L15.6334 18.5888L17.0476 20.003ZM22 12.2264V9.77361H20V12.2264H22ZM20.003 4.95242L17.0476 1.997L15.6334 3.41121L18.5888 6.36664L20.003 4.95242ZM12.2264 0H9.77361V2H12.2264V0ZM17.0476 1.997C16.4523 1.40175 16.044 0.984318 15.5526 0.683214L14.5076 2.38849C14.7502 2.53715 14.9708 2.74865 15.6334 3.41121L17.0476 1.997ZM12.2264 2C13.1634 2 13.4689 2.00643 13.7456 2.07284L14.2125 0.128103C13.6521 -0.00642669 13.0682 0 12.2264 0V2ZM15.5526 0.683214C15.1378 0.429008 14.6855 0.241679 14.2125 0.128103L13.7456 2.07284C14.0146 2.13743 14.2717 2.24395 14.5076 2.38849L15.5526 0.683214ZM22 9.77361C22 8.93179 22.0064 8.34789 21.8719 7.78753L19.9272 8.25442C19.9936 8.53106 20 8.83659 20 9.77361H22ZM18.5888 6.36664C19.2514 7.02921 19.4629 7.24979 19.6115 7.49237L21.3168 6.44737C21.0157 5.95602 20.5983 5.54768 20.003 4.95242L18.5888 6.36664ZM21.8719 7.78753C21.7583 7.31445 21.571 6.8622 21.3168 6.44737L19.6115 7.49237C19.7561 7.72825 19.8626 7.98542 19.9272 8.25442L21.8719 7.78753ZM20.003 17.0476C20.5983 16.4523 21.0157 16.044 21.3168 15.5526L19.6115 14.5076C19.4629 14.7502 19.2514 14.9708 18.5888 15.6334L20.003 17.0476ZM20 12.2264C20 13.1634 19.9936 13.4689 19.9272 13.7456L21.8719 14.2125C22.0064 13.6521 22 13.0682 22 12.2264H20ZM21.3168 15.5526C21.571 15.1378 21.7583 14.6855 21.8719 14.2125L19.9272 13.7456C19.8626 14.0146 19.7561 14.2717 19.6115 14.5076L21.3168 15.5526ZM12.2264 22C13.0682 22 13.6521 22.0064 14.2125 21.8719L13.7456 19.9272C13.4689 19.9936 13.1634 20 12.2264 20V22ZM15.6334 18.5888C14.9708 19.2514 14.7502 19.4629 14.5076 19.6115L15.5526 21.3168C16.044 21.0157 16.4523 20.5983 17.0476 20.003L15.6334 18.5888ZM14.2125 21.8719C14.6855 21.7583 15.1378 21.571 15.5526 21.3168L14.5076 19.6115C14.2717 19.7561 14.0146 19.8626 13.7456 19.9272L14.2125 21.8719ZM4.95242 20.003C5.54768 20.5983 5.95602 21.0157 6.44737 21.3168L7.49237 19.6115C7.24979 19.4629 7.02921 19.2514 6.36664 18.5888L4.95242 20.003ZM9.77361 20C8.83659 20 8.53106 19.9936 8.25442 19.9272L7.78753 21.8719C8.34789 22.0064 8.93179 22 9.77361 22V20ZM6.44737 21.3168C6.8622 21.571 7.31445 21.7583 7.78753 21.8719L8.25442 19.9272C7.98542 19.8626 7.72825 19.7561 7.49237 19.6115L6.44737 21.3168ZM0 12.2264C0 13.0682 -0.00642669 13.6521 0.128103 14.2125L2.07284 13.7456C2.00643 13.4689 2 13.1634 2 12.2264H0ZM3.41121 15.6334C2.74864 14.9708 2.53715 14.7502 2.38849 14.5076L0.683214 15.5526C0.984319 16.044 1.40174 16.4523 1.997 17.0476L3.41121 15.6334ZM0.128103 14.2125C0.241679 14.6855 0.429008 15.1378 0.683214 15.5526L2.38849 14.5076C2.24395 14.2717 2.13743 14.0146 2.07284 13.7456L0.128103 14.2125ZM1.997 4.95243C1.40174 5.54768 0.984319 5.95602 0.683214 6.44737L2.38849 7.49237C2.53715 7.24979 2.74864 7.02921 3.41121 6.36664L1.997 4.95243ZM2 9.77361C2 8.83659 2.00643 8.53106 2.07284 8.25442L0.128103 7.78753C-0.00642669 8.34789 0 8.93178 0 9.77361H2ZM0.683214 6.44737C0.429008 6.8622 0.241679 7.31445 0.128103 7.78753L2.07284 8.25442C2.13743 7.98542 2.24395 7.72825 2.38849 7.49237L0.683214 6.44737ZM6.36664 3.41121C7.02921 2.74864 7.24979 2.53715 7.49237 2.38849L6.44737 0.683214C5.95602 0.984319 5.54768 1.40174 4.95242 1.997L6.36664 3.41121ZM9.77361 0C8.93178 0 8.34789 -0.00642669 7.78753 0.128103L8.25442 2.07284C8.53106 2.00643 8.83659 2 9.77361 2V0ZM7.49237 2.38849C7.72825 2.24395 7.98542 2.13743 8.25442 2.07284L7.78753 0.128103C7.31445 0.241679 6.8622 0.429008 6.44737 0.683214L7.49237 2.38849ZM10 6V12.6667H12V6H10Z" fill="#FFAB2D"/>
<circle cx="11.0003" cy="16" r="0.833333" fill="#FFAB2D"/>
</svg>
